<svg width="298" height="150" viewBox="0 0 298 150" fill="none" xmlns="http://www.w3.org/2000/svg">
<rect x="231.855" y="54.7131" width="83.8258" height="3" rx="1.5" transform="rotate(-40 231.855 54.7131)" fill="white"/>
<rect x="153.855" y="11.5531" width="17.0689" height="3" rx="1.5" transform="rotate(-40 153.855 11.5531)" fill="white"/>
<rect x="0.843262" y="62.448" width="12.6911" height="3" rx="1.5" transform="rotate(-40 0.843262 62.448)" fill="white"/>
<rect x="36.5757" y="146.833" width="11.7347" height="3" rx="1.5" transform="rotate(-40 36.5757 146.833)" fill="white"/>
<rect x="48.5161" y="147.4" width="15.7283" height="3" rx="1.5" transform="rotate(-40 48.5161 147.4)" fill="white"/>
<rect x="201.625" y="97.5979" width="121.027" height="3" rx="1.5" transform="rotate(-40 201.625 97.5979)" fill="white"/>
<rect x="261.855" y="57.5978" width="42.8874" height="3" rx="1.5" transform="rotate(-40 261.855 57.5978)" fill="white"/>
<rect x="286.855" y="107.598" width="10.1833" height="3" rx="1.5" transform="rotate(-40 286.855 107.598)" fill="white"/>
<rect x="279.855" y="136.598" width="16.1585" height="3" rx="1.5" transform="rotate(-40 279.855 136.598)" fill="white"/>
<rect x="251.49" y="146.57" width="57.1433" height="3" rx="1.5" transform="rotate(-40 251.49 146.57)" fill="white"/>
</svg>
